<svg version="1.1" viewBox="0.0 0.0 960.0 540.0" fill="none" stroke="none" stroke-linecap="square" stroke-miterlimit="10" xmlns:xlink="http://www.w3.org/1999/xlink" xmlns="http://www.w3.org/2000/svg"><clipPath id="g35f47007481_0_0.0"><path d="m0 0l960.0 0l0 540.0l-960.0 0l0 -540.0z" clip-rule="nonzero"/></clipPath><g clip-path="url(#g35f47007481_0_0.0)"><path fill="#ffffff" d="m0 0l960.0 0l0 540.0l-960.0 0z" fill-rule="evenodd"/><path fill="#f9f9f9" d="m600.9184 204.57684l-4.187866 0.13613892l-4.1901245 0.2699585l-4.051697 0.539917l-4.054016 0.80989075l-3.9155884 0.81217957l-3.7840576 1.079834l-3.7817383 1.3521118l-3.7840576 1.4859314l-3.5117798 1.6197662l-3.5117798 1.7558899l-3.5140991 2.0281525l-3.2418213 2.0258636l-3.2418213 2.295807l-3.1080322 2.4319458l-2.9718628 2.5657654l-2.7019043 2.7019043l-2.7019043 2.8380432l-2.5657349 2.9718628l-2.4319458 3.1080017l-2.2958374 3.1056976l-2.1619873 3.3779602l-1.8920288 3.3779602l-1.8920288 3.5117798l-1.619751 3.6479187l-1.4859009 3.6479187l-1.2160034 3.7817383l-1.0821533 3.9178772l-0.94366455 3.9178772l-0.6760864 4.054016l-0.539917 4.0517273l-0.4060669 4.0539856l0 4.187866l0 4.1878357l0.4060669 4.1878357l0.539917 4.051697l0.6760864 4.054016l0.94366455 3.9178772l1.0821533 3.7817383l1.2160034 3.7840576l1.4859009 3.7817383l1.619751 3.5117798l1.8920288 3.5140991l1.8920288 3.5117798l2.1619873 3.2418213l2.2958374 3.2418518l2.4319458 3.1080017l2.5657349 2.9718628l2.7019043 2.7019043l2.7019043 2.7019043l2.9718628 2.5657654l3.1080322 2.4319458l3.2418213 2.2981262l3.2418213 2.159668l3.5140991 1.8920288l3.5117798 1.8920288l3.5117798 1.619751l3.7840576 1.4882507l3.7817383 1.2136536l3.7840576 1.0821533l3.9155884 0.9460144l4.054016 0.6737366l4.051697 0.5422363l4.1901245 0.40377808l6.8897705 0l2.9718628 -0.2699585l2.9718628 -0.539917l3.2418213 -0.539917l3.2418213 -0.8098755l3.2418213 -0.8121948l3.3779907 -0.9460144l3.3779297 -1.079834l3.3779907 -1.2159729l3.3756104 -1.2159729l3.2441406 -1.3497925l3.105713 -1.3521118l3.1079712 -1.4859314l2.9718628 -1.4859314l2.7019043 -1.4859314l2.565796 -1.4859314l0.1361084 0l113.21008 -65.38565l-113.21008 -65.25185l-0.1361084 -0.13381958l-2.565796 -1.4859467l-2.7019043 -1.4882355l-2.9718628 -1.3497925l-3.1079712 -1.4859314l-3.105713 -1.3521118l-3.2441406 -1.3498077l-3.3756104 -1.2159729l-3.3779907 -1.2159729l-3.3779297 -1.079834l-3.3779907 -1.0821381l-3.2418213 -0.80989075l-3.2418213 -0.6760559l-3.2418213 -0.67604065l-2.9718628 -0.40379333l-2.9718628 -0.2699585l-2.7019043 -0.13613892z" fill-rule="evenodd"/><path fill="#f9f9f9" d="m774.92017 305.35724l-113.07391 65.25183l-4.8638916 2.7019043l-5.2700195 2.7019043l-5.807556 2.5657654l-5.946045 2.4319458l-6.213684 2.2981262l-6.213684 2.0258484l-6.3498535 1.6197815l-3.1079712 0.6760559l-3.105713 0.6760254l168.05804 96.99866l-1.0820923 -2.9718628l-0.9460449 -3.1080017l-1.619751 -6.213684l-1.4859619 -6.485962l-1.0820923 -6.4836426l-0.9437256 -6.349823l-0.5422363 -6.349823l-0.4038086 -5.943756l0 -5.537628l0 -130.50366z" fill-rule="evenodd"/><path fill="#f9f9f9" d="m876.91656 44.35453l-3.9179077 0.13613129l-3.9178467 0.4037857l-3.9179077 0.5399208l-3.7817383 0.6760521l-3.9178467 0.9460144l-3.6479492 1.0798378l-3.7840576 1.352108l-3.6455688 1.4859314l-3.5140991 1.6220665l-3.5117798 1.7558937l-3.3779907 2.0258522l-3.3756714 2.0258522l-3.1079712 2.4319458l-3.1080322 2.4319458l-3.1056519 2.565773l-2.8380737 2.8380432l-2.7019043 2.9718628l-2.7019043 3.1080017l-2.4319458 3.2418213l-2.4319458 3.3779602l-2.1619873 3.6479187l-1.2159424 2.4296417l-1.2136841 2.7019043l-1.2159424 2.8380356l-1.0821533 2.9718704l-0.9460449 3.2418213l-0.94366455 3.241829l-0.8121948 3.5140915l-0.8098755 3.3756485l-0.539917 3.5140915l-0.6760864 3.5117874l-0.4060669 3.5117874l-0.4038086 3.3779602l-0.2699585 3.3779602l-0.27227783 3.3779526l-0.13378906 3.1056976l0 2.9718628l0 0.13613892l0 130.63748l113.21008 -65.38565l0.13378906 0l2.5681152 -1.4882507l2.7019043 -1.7558899l2.7019043 -1.7558899l2.7019043 -1.8920288l2.8356934 -2.159668l2.7019043 -2.1619873l2.8380737 -2.1619873l2.7019043 -2.2958221l2.5657349 -2.4319458l2.5681152 -2.4319458l2.4319458 -2.4319458l2.2957764 -2.4319458l2.025879 -2.4319458l1.8920288 -2.4319458l1.7559204 -2.4319458l1.4859009 -2.295807l1.8920288 -3.6479187l1.8897095 -3.7817535l1.4859619 -3.7840424l1.4882202 -3.7817535l1.079834 -3.9178772l1.079834 -3.9178772l0.6760864 -3.9178772l0.6760254 -3.9178772l0.4038086 -3.9178772l0.1361084 -3.9178848l0 -3.9178772l-0.1361084 -3.9178772l-0.4038086 -3.9155731l-0.539917 -3.9178772l-0.8121948 -3.78405l-0.8098755 -3.9178772l-1.2159424 -3.6479187l-1.2160034 -3.781746l-1.4859009 -3.6479187l-1.6220703 -3.5117874l-1.7559204 -3.5117874l-2.0258179 -3.3779602l-2.1619873 -3.3779602l-2.2958374 -3.107994l-2.4319458 -3.241829l-2.7019043 -2.9718628l-2.7019043 -2.8357315l-2.9718628 -2.8380432l-3.1080322 -2.5657692l-3.2418213 -2.4319458l-3.5117798 -2.4319458l-3.5117798 -2.1619873l-3.6478882 -2.0258522l-3.7840576 -1.7558937l-3.7817383 -1.6220665l-3.7840576 -1.3521042l-3.9155884 -1.213665l-3.9179077 -0.9460144l-3.9178467 -0.8121872l-3.9179077 -0.5399208l-3.9178467 -0.4037857l-3.9179077 -0.13613129z" fill-rule="evenodd"/><path fill="#f9f9f9" d="m797.0754 305.35724l0 130.63748l0 0.13613892l0 2.9718628l0.13378906 3.105713l0.27227783 3.24411l0.2699585 3.3756714l0.4038086 3.5140991l0.4060669 3.3756409l0.6760864 3.5140991l0.539917 3.5117798l0.8098755 3.5117798l0.8121948 3.3779602l0.94366455 3.3779602l0.9460449 3.1056824l1.0821533 3.1080017l1.2159424 2.8380432l1.2136841 2.7019043l1.2159424 2.4296265l2.1619873 3.5140991l2.4319458 3.3779602l2.4319458 3.3756714l2.7019043 3.1080017l2.7019043 2.9718628l2.8380737 2.7019043l3.1056519 2.7019043l3.1080322 2.4319458l3.1079712 2.295807l3.3756714 2.1619873l3.3779907 2.0258179l3.5117798 1.7559204l3.5140991 1.6220703l3.6455688 1.4859009l3.7840576 1.2160034l3.6479492 1.079834l3.9178467 0.9460449l3.7817383 0.8121338l3.9179077 0.539917l3.9178467 0.4038086l3.9179077 0.13616943l3.9178467 0l3.9179077 -0.27001953l3.9178467 -0.2699585l3.9179077 -0.6760254l3.9178467 -0.8098755l3.9179077 -0.9460449l3.9155884 -1.2159424l3.7840576 -1.3521118l3.7817383 -1.619751l3.7840576 -1.7559204l3.6478882 -2.0281372l3.5117798 -2.159668l3.5117798 -2.2981567l3.2418213 -2.5657349l3.1080322 -2.5680847l2.9718628 -2.7019043l2.7019043 -2.9718628l2.7019043 -2.9718628l2.4319458 -3.105713l2.2958374 -3.24411l2.1619873 -3.2418518l2.0258179 -3.5117798l1.7559204 -3.3779602l1.6220703 -3.6479187l1.4859009 -3.6479187l1.2160034 -3.6455994l1.2159424 -3.7840576l0.8098755 -3.7817383l0.8121948 -3.7840576l0.539917 -3.9178772l0.4038086 -3.9155884l0.1361084 -3.9178772l0 -3.9178772l-0.1361084 -3.9178772l-0.4038086 -4.054016l-0.6760254 -3.9178772l-0.6760864 -3.9178772l-1.079834 -3.7817383l-1.079834 -3.9178772l-1.4882202 -3.7817383l-1.4859619 -3.7840576l-1.8897095 -3.7817383l-1.8920288 -3.6479187l-1.4859009 -2.4319458l-1.7559204 -2.295807l-1.8920288 -2.4319458l-2.025879 -2.4319458l-2.2957764 -2.5680847l-2.4319458 -2.429657l-2.5681152 -2.4319458l-2.5657349 -2.2980957l-2.7019043 -2.2958374l-2.8380737 -2.295807l-2.7019043 -2.1619873l-2.8356934 -2.0258484l-2.7019043 -2.0281677l-2.7019043 -1.7558899l-2.7019043 -1.619751l-2.5681152 -1.4859314l-0.13378906 -0.13613892l-113.21008 -65.25183z" fill-rule="evenodd"/><path fill="#f9f9f9" d="m959.9996 189.04147l-2.0258179 2.4319458l-2.1619873 2.295807l-4.593933 4.593933l-4.8638916 4.457794l-4.9977417 4.3239746l-5.13385 3.9178772l-5.13385 3.6456146l-4.9977417 3.2441254l-4.8638916 2.8357391l-112.937805 65.25185l112.937805 65.24951l4.8638916 2.8380432l4.9977417 3.3779602l5.13385 3.6455994l5.13385 3.9178772l4.9977417 4.1878357l4.8638916 4.4601135l4.593933 4.591614l2.1619873 2.4319458l2.0258179 2.2981262l0 -193.99728z" fill-rule="evenodd"/><path fill="#f9f9f9" d="m783.0259 86.908966l-168.05804 96.99866l3.105713 0.539917l3.1079712 0.6760559l6.3498535 1.7558899l6.213684 2.0258484l6.213684 2.1619873l5.946045 2.4319458l5.807556 2.7019043l5.2700195 2.5680847l4.8638916 2.8357239l113.07391 65.25183l0 -130.50366l0 -5.673767l0.4038086 -5.943733l0.5422363 -6.2136917l0.9437256 -6.485962l1.0820923 -6.3475113l1.4859619 -6.485962l1.619751 -6.349823l0.9460449 -2.9718628l1.0820923 -2.9718704z" fill-rule="evenodd"/><path fill="#009dff" d="m0.0131233595 0l161.07086 0l0 8.472441l-161.07086 0z" fill-rule="evenodd"/><path fill="#22ccbb" d="m161.0733 0l161.07086 0l0 8.472441l-161.07086 0z" fill-rule="evenodd"/><path fill="#ffea00" d="m322.13348 0l161.07086 0l0 8.472441l-161.07086 0z" fill-rule="evenodd"/><path fill="#ff9900" d="m483.19366 0l161.07086 0l0 8.472441l-161.07086 0z" fill-rule="evenodd"/><path fill="#ee4499" d="m637.8768 0l161.07086 0l0 8.472441l-161.07086 0z" fill-rule="evenodd"/><path fill="#b033dd" d="m798.93695 0l161.07086 0l0 8.472441l-161.07086 0z" fill-rule="evenodd"/><path fill="#000000" fill-opacity="0.0" d="m100.373085 511.44125l263.3701 0l0 20.283478l-263.3701 0z" fill-rule="evenodd"/><path fill="#424242" d="m102.654335 521.65485q0 -0.671875 0.3125 -1.21875q0.3125 -0.546875 0.828125 -0.84375q0.53125 -0.3125 1.1875 -0.3125q0.75 0 1.3125 0.375q0.578125 0.359375 0.828125 1.03125l-0.71875 0q-0.203125 -0.421875 -0.5625 -0.640625q-0.359375 -0.234375 -0.859375 -0.234375q-0.5 0 -0.890625 0.234375q-0.375 0.21875 -0.59375 0.640625q-0.21875 0.421875 -0.21875 0.96875q0 0.5625 0.21875 0.984375q0.21875 0.40625 0.59375 0.640625q0.390625 0.21875 0.890625 0.21875q0.5 0 0.859375 -0.21875q0.359375 -0.234375 0.5625 -0.640625l0.71875 0q-0.25 0.65625 -0.828125 1.03125q-0.5625 0.359375 -1.3125 0.359375q-0.65625 0 -1.1875 -0.296875q-0.515625 -0.3125 -0.828125 -0.84375q-0.3125 -0.546875 -0.3125 -1.234375zm6.96669 2.390625q-0.515625 0 -0.9375 -0.234375q-0.40625 -0.234375 -0.65625 -0.65625q-0.234375 -0.4375 -0.234375 -1.0q0 -0.5625 0.234375 -0.984375q0.25 -0.4375 0.671875 -0.65625q0.421875 -0.234375 0.9375 -0.234375q0.53125 0 0.9375 0.234375q0.421875 0.21875 0.65625 0.65625q0.25 0.421875 0.25 0.984375q0 0.5625 -0.25 1.0q-0.25 0.421875 -0.671875 0.65625q-0.421875 0.234375 -0.9375 0.234375zm0 -0.53125q0.3125 0 0.59375 -0.15625q0.296875 -0.15625 0.46875 -0.453125q0.1875 -0.3125 0.1875 -0.75q0 -0.4375 -0.171875 -0.734375q-0.171875 -0.3125 -0.453125 -0.46875q-0.28125 -0.15625 -0.609375 -0.15625q-0.328125 0 -0.609375 0.15625q-0.28125 0.15625 -0.453125 0.46875q-0.15625 0.296875 -0.15625 0.734375q0 0.4375 0.15625 0.75q0.171875 0.3125 0.4375 0.46875q0.28125 0.140625 0.609375 0.140625zm3.2755737 -2.5q0.171875 -0.3125 0.53125 -0.515625q0.359375 -0.21875 0.828125 -0.21875q0.484375 0 0.875 0.234375q0.40625 0.234375 0.625 0.65625q0.234375 0.421875 0.234375 0.96875q0 0.5625 -0.234375 1.0q-0.21875 0.421875 -0.625 0.671875q-0.390625 0.234375 -0.875 0.234375q-0.46875 0 -0.828125 -0.203125q-0.359375 -0.21875 -0.53125 -0.53125l0 2.40625l-0.609375 0l0 -5.375l0.609375 0l0 0.671875zm2.46875 1.125q0 -0.40625 -0.171875 -0.703125q-0.15625 -0.3125 -0.4375 -0.46875q-0.28125 -0.171875 -0.625 -0.171875q-0.328125 0 -0.625 0.171875q-0.28125 0.15625 -0.453125 0.46875q-0.15625 0.3125 -0.15625 0.71875q0 0.40625 0.15625 0.71875q0.171875 0.3125 0.453125 0.484375q0.296875 0.15625 0.625 0.15625q0.34375 0 0.625 -0.15625q0.28125 -0.171875 0.4375 -0.484375q0.171875 -0.3125 0.171875 -0.734375zm4.5620728 -1.796875l-2.203125 5.359375l-0.625 0l0.71875 -1.765625l-1.46875 -3.59375l0.671875 0l1.140625 2.953125l1.140625 -2.953125l0.625 0zm1.2161713 0.578125q0.15625 -0.3125 0.453125 -0.484375q0.296875 -0.171875 0.71875 -0.171875l0 0.625l-0.15625 0q-1.015625 0 -1.015625 1.109375l0 1.984375l-0.609375 0l0 -3.640625l0.609375 0l0 0.578125zm2.1858826 -1.171875q-0.171875 0 -0.296875 -0.125q-0.125 -0.125 -0.125 -0.296875q0 -0.171875 0.125 -0.28125q0.125 -0.125 0.296875 -0.125q0.15625 0 0.265625 0.125q0.125 0.109375 0.125 0.28125q0 0.171875 -0.125 0.296875q-0.109375 0.125 -0.265625 0.125zm0.296875 0.59375l0 3.640625l-0.609375 0l0 -3.640625l0.609375 0zm2.5280457 -0.0625q0.46875 0 0.828125 0.203125q0.359375 0.203125 0.53125 0.515625l0 -0.65625l0.6093826 0l0 3.71875q0 0.5 -0.21875763 0.890625q-0.203125 0.390625 -0.609375 0.609375q-0.390625 0.21875 -0.90625 0.21875q-0.71875 0 -1.203125 -0.34375q-0.484375 -0.328125 -0.5625 -0.921875l0.59375 0q0.09375 0.328125 0.40625 0.53125q0.3125 0.203125 0.765625 0.203125q0.5 0 0.8125 -0.3125q0.3125 -0.3125 0.3125 -0.875l0 -0.765625q-0.1875 0.328125 -0.546875 0.546875q-0.34375 0.203125 -0.8125 0.203125q-0.484375 0 -0.890625 -0.234375q-0.390625 -0.25 -0.625 -0.671875q-0.21875 -0.4375 -0.21875 -1.0q0 -0.546875 0.21875 -0.96875q0.234375 -0.421875 0.625 -0.65625q0.40625 -0.234375 0.890625 -0.234375zm1.359375 1.875q0 -0.421875 -0.171875 -0.71875q-0.15625 -0.3125 -0.453125 -0.46875q-0.28125 -0.171875 -0.609375 -0.171875q-0.34375 0 -0.625 0.171875q-0.28125 0.15625 -0.453125 0.46875q-0.15625 0.296875 -0.15625 0.703125q0 0.421875 0.15625 0.734375q0.171875 0.3125 0.453125 0.484375q0.28125 0.15625 0.625 0.15625q0.328125 0 0.609375 -0.15625q0.296875 -0.171875 0.453125 -0.484375q0.171875 -0.3125 0.171875 -0.71875zm3.4527054 -1.890625q0.40625 0 0.734375 0.1875q0.34375 0.171875 0.53125 0.53125q0.1875 0.34375 0.1875 0.84375l0 2.15625l-0.59375 0l0 -2.0625q0 -0.546875 -0.28125 -0.828125q-0.265625 -0.296875 -0.75 -0.296875q-0.46875 0 -0.75 0.296875q-0.28125 0.296875 -0.28125 0.875l0 2.015625l-0.609375 0l0 -4.921875l0.609375 0l0 1.796875q0.171875 -0.28125 0.484375 -0.4375q0.328125 -0.15625 0.71875 -0.15625zm3.1818237 0.578125l0 2.140625q0 0.265625 0.109375 0.375q0.125 0.109375 0.390625 0.109375l0.453125 0l0 0.515625l-0.546875 0q-0.5 0 -0.765625 -0.234375q-0.25 -0.234375 -0.25 -0.765625l0 -2.140625l-0.46875 0l0 -0.5l0.46875 0l0 -0.921875l0.609375 0l0 0.921875l0.953125 0l0 0.5l-0.953125 0zm3.2312927 1.3125q0 -0.5625 0.21875 -0.984375q0.234375 -0.421875 0.640625 -0.65625q0.40625 -0.234375 0.921875 -0.234375q0.671875 0 1.109375 0.328125q0.4375 0.3125 0.578125 0.90625l-0.65625 0q-0.09375 -0.34375 -0.359375 -0.53125q-0.265625 -0.1875 -0.671875 -0.1875q-0.515625 0 -0.84375 0.359375q-0.3125 0.34375 -0.3125 1.0q0 0.65625 0.3125 1.015625q0.328125 0.359375 0.84375 0.359375q0.40625 0 0.671875 -0.1875q0.265625 -0.1875 0.359375 -0.53125l0.65625 0q-0.15625 0.5625 -0.59375 0.90625q-0.4375 0.328125 -1.09375 0.328125q-0.515625 0 -0.921875 -0.234375q-0.40625 -0.234375 -0.640625 -0.65625q-0.21875 -0.4375 -0.21875 -1.0zm5.8684235 1.890625q-0.515625 0 -0.9375 -0.234375q-0.40625 -0.234375 -0.65625 -0.65625q-0.234375 -0.4375 -0.234375 -1.0q0 -0.5625 0.234375 -0.984375q0.25 -0.4375 0.671875 -0.65625q0.421875 -0.234375 0.9375 -0.234375q0.53125 0 0.9375 0.234375q0.421875 0.21875 0.65625 0.65625q0.25 0.421875 0.25 0.984375q0 0.5625 -0.25 1.0q-0.25 0.421875 -0.671875 0.65625q-0.421875 0.234375 -0.9375 0.234375zm0 -0.53125q0.3125 0 0.59375 -0.15625q0.296875 -0.15625 0.46875 -0.453125q0.1875 -0.3125 0.1875 -0.75q0 -0.4375 -0.171875 -0.734375q-0.171875 -0.3125 -0.453125 -0.46875q-0.28125 -0.15625 -0.609375 -0.15625q-0.328125 0 -0.609375 0.15625q-0.28125 0.15625 -0.453125 0.46875q-0.15625 0.296875 -0.15625 0.734375q0 0.4375 0.15625 0.75q0.171875 0.3125 0.4375 0.46875q0.28125 0.140625 0.609375 0.140625zm2.4318237 -1.359375q0 -0.5625 0.21875 -0.984375q0.234375 -0.421875 0.640625 -0.65625q0.40625 -0.234375 0.921875 -0.234375q0.671875 0 1.109375 0.328125q0.4375 0.3125 0.578125 0.90625l-0.65625 0q-0.09375 -0.34375 -0.359375 -0.53125q-0.265625 -0.1875 -0.671875 -0.1875q-0.515625 0 -0.84375 0.359375q-0.3125 0.34375 -0.3125 1.0q0 0.65625 0.3125 1.015625q0.328125 0.359375 0.84375 0.359375q0.40625 0 0.671875 -0.1875q0.265625 -0.1875 0.359375 -0.53125l0.65625 0q-0.15625 0.5625 -0.59375 0.90625q-0.4375 0.328125 -1.09375 0.328125q-0.515625 0 -0.921875 -0.234375q-0.40625 -0.234375 -0.640625 -0.65625q-0.21875 -0.4375 -0.21875 -1.0zm5.8684235 1.890625q-0.515625 0 -0.9375 -0.234375q-0.40625 -0.234375 -0.65625 -0.65625q-0.234375 -0.4375 -0.234375 -1.0q0 -0.5625 0.234375 -0.984375q0.25 -0.4375 0.671875 -0.65625q0.421875 -0.234375 0.9375 -0.234375q0.53125 0 0.9375 0.234375q0.421875 0.21875 0.65625 0.65625q0.25 0.421875 0.25 0.984375q0 0.5625 -0.25 1.0q-0.25 0.421875 -0.671875 0.65625q-0.421875 0.234375 -0.9375 0.234375zm0 -0.53125q0.3125 0 0.59375 -0.15625q0.296875 -0.15625 0.46875 -0.453125q0.1875 -0.3125 0.1875 -0.75q0 -0.4375 -0.171875 -0.734375q-0.171875 -0.3125 -0.453125 -0.46875q-0.28125 -0.15625 -0.609375 -0.15625q-0.328125 0 -0.609375 0.15625q-0.28125 0.15625 -0.453125 0.46875q-0.15625 0.296875 -0.15625 0.734375q0 0.4375 0.15625 0.75q0.171875 0.3125 0.4375 0.46875q0.28125 0.140625 0.609375 0.140625zm4.4474487 -3.25q0.65625 0 1.0625 0.40625q0.421875 0.40625 0.421875 1.15625l0 2.15625l-0.59375 0l0 -2.0625q0 -0.546875 -0.28125 -0.828125q-0.265625 -0.296875 -0.75 -0.296875q-0.46875 0 -0.75 0.296875q-0.28125 0.296875 -0.28125 0.875l0 2.015625l-0.609375 0l0 -3.640625l0.609375 0l0 0.515625q0.171875 -0.28125 0.484375 -0.4375q0.3125 -0.15625 0.6875 -0.15625zm2.2443237 1.875q0 -0.546875 0.21875 -0.96875q0.234375 -0.421875 0.625 -0.65625q0.40625 -0.234375 0.890625 -0.234375q0.484375 0 0.828125 0.203125q0.359375 0.203125 0.53125 0.515625l0 -0.65625l0.609375 0l0 3.640625l-0.609375 0l0 -0.671875q-0.1875 0.3125 -0.546875 0.53125q-0.34375 0.203125 -0.8125 0.203125q-0.484375 0 -0.890625 -0.234375q-0.390625 -0.25 -0.625 -0.671875q-0.21875 -0.4375 -0.21875 -1.0zm3.09375 0.015625q0 -0.421875 -0.171875 -0.71875q-0.15625 -0.3125 -0.453125 -0.46875q-0.28125 -0.171875 -0.609375 -0.171875q-0.34375 0 -0.625 0.171875q-0.28125 0.15625 -0.453125 0.46875q-0.15625 0.296875 -0.15625 0.703125q0 0.421875 0.15625 0.734375q0.171875 0.3125 0.453125 0.484375q0.28125 0.15625 0.625 0.15625q0.328125 0 0.609375 -0.15625q0.296875 -0.171875 0.453125 -0.484375q0.171875 -0.3125 0.171875 -0.71875zm2.2495728 -3.09375l0 4.921875l-0.609375 0l0 -4.921875l0.609375 0zm0.79367065 3.078125q0 -0.546875 0.21875 -0.96875q0.234375 -0.421875 0.625 -0.65625q0.40625 -0.234375 0.890625 -0.234375q0.484375 0 0.828125 0.203125q0.359375 0.203125 0.53125 0.515625l0 -0.65625l0.609375 0l0 3.640625l-0.609375 0l0 -0.671875q-0.1875 0.3125 -0.546875 0.53125q-0.34375 0.203125 -0.8125 0.203125q-0.484375 0 -0.890625 -0.234375q-0.390625 -0.25 -0.625 -0.671875q-0.21875 -0.4375 -0.21875 -1.0zm3.09375 0.015625q0 -0.421875 -0.171875 -0.71875q-0.15625 -0.3125 -0.453125 -0.46875q-0.28125 -0.171875 -0.609375 -0.171875q-0.34375 0 -0.625 0.171875q-0.28125 0.15625 -0.453125 0.46875q-0.15625 0.296875 -0.15625 0.703125q0 0.421875 0.15625 0.734375q0.171875 0.3125 0.453125 0.484375q0.28125 0.15625 0.625 0.15625q0.328125 0 0.609375 -0.15625q0.296875 -0.171875 0.453125 -0.484375q0.171875 -0.3125 0.171875 -0.71875zm4.026764 -2.8125l0 4.640625l-0.609375 0l0 -4.640625l0.609375 0zm2.8092957 0.921875q0.65625 0 1.0625 0.40625q0.421875 0.40625 0.421875 1.15625l0 2.15625l-0.59375 0l0 -2.0625q0 -0.546875 -0.28125 -0.828125q-0.265625 -0.296875 -0.75 -0.296875q-0.46875 0 -0.75 0.296875q-0.28125 0.296875 -0.28125 0.875l0 2.015625l-0.609375 0l0 -3.640625l0.609375 0l0 0.515625q0.171875 -0.28125 0.484375 -0.4375q0.3125 -0.15625 0.6875 -0.15625zm2.2443237 1.890625q0 -0.5625 0.21875 -0.984375q0.234375 -0.421875 0.640625 -0.65625q0.40625 -0.234375 0.921875 -0.234375q0.671875 0 1.109375 0.328125q0.4375 0.3125 0.578125 0.90625l-0.65625 0q-0.09375 -0.34375 -0.359375 -0.53125q-0.265625 -0.1875 -0.671875 -0.1875q-0.515625 0 -0.84375 0.359375q-0.3125 0.34375 -0.3125 1.0q0 0.65625 0.3125 1.015625q0.328125 0.359375 0.84375 0.359375q0.40625 0 0.671875 -0.1875q0.265625 -0.1875 0.359375 -0.53125l0.65625 0q-0.15625 0.5625 -0.59375 0.90625q-0.4375 0.328125 -1.09375 0.328125q-0.515625 0 -0.921875 -0.234375q-0.40625 -0.234375 -0.640625 -0.65625q-0.21875 -0.4375 -0.21875 -1.0zm4.4621735 1.875q-0.171875 0 -0.296875 -0.125q-0.109375 -0.125 -0.109375 -0.296875q0 -0.171875 0.109375 -0.28125q0.125 -0.125 0.296875 -0.125q0.171875 0 0.28125 0.125q0.125 0.109375 0.125 0.28125q0 0.171875 -0.125 0.296875q-0.109375 0.125 -0.28125 0.125zm5.721863 -1.078125l-2.015625 0l-0.375 1.03125l-0.640625 0l1.671875 -4.609375l0.703125 0l1.671875 4.609375l-0.640625 0l-0.375 -1.03125zm-0.171875 -0.5l-0.828125 -2.34375l-0.84375 2.34375l1.671875 0zm2.5331268 -3.390625l0 4.921875l-0.609375 0l0 -4.921875l0.609375 0zm1.6374207 0l0 4.921875l-0.609375 0l0 -4.921875l0.609375 0zm5.242737 4.921875l-1.109375 -1.890625l-0.71875 0l0 1.890625l-0.609375 0l0 -4.640625l1.5 0q0.515625 0 0.875 0.1875q0.375 0.171875 0.546875 0.484375q0.1875 0.296875 0.1875 0.6875q0 0.484375 -0.28125 0.859375q-0.28125 0.359375 -0.828125 0.484375l1.171875 1.9375l-0.734375 0zm-1.828125 -2.390625l0.890625 0q0.484375 0 0.734375 -0.234375q0.25 -0.25 0.25 -0.65625q0 -0.40625 -0.25 -0.625q-0.234375 -0.234375 -0.734375 -0.234375l-0.890625 0l0 1.75zm3.7500763 -1.84375q-0.171875 0 -0.296875 -0.125q-0.125 -0.125 -0.125 -0.296875q0 -0.171875 0.125 -0.28125q0.125 -0.125 0.296875 -0.125q0.15625 0 0.265625 0.125q0.125 0.109375 0.125 0.28125q0 0.171875 -0.125 0.296875q-0.109375 0.125 -0.265625 0.125zm0.296875 0.59375l0 3.640625l-0.609375 0l0 -3.640625l0.609375 0zm2.5280457 -0.0625q0.46875 0 0.828125 0.203125q0.359375 0.203125 0.53125 0.515625l0 -0.65625l0.609375 0l0 3.71875q0 0.5 -0.21875 0.890625q-0.203125 0.390625 -0.609375 0.609375q-0.390625 0.21875 -0.90625 0.21875q-0.71875 0 -1.203125 -0.34375q-0.484375 -0.328125 -0.5625 -0.921875l0.59375 0q0.09375 0.328125 0.40625 0.53125q0.3125 0.203125 0.765625 0.203125q0.5 0 0.8125 -0.3125q0.3125 -0.3125 0.3125 -0.875l0 -0.765625q-0.1875 0.328125 -0.546875 0.546875q-0.34375 0.203125 -0.8125 0.203125q-0.484375 0 -0.890625 -0.234375q-0.390625 -0.25 -0.625 -0.671875q-0.21875 -0.4375 -0.21875 -1.0q0 -0.546875 0.21875 -0.96875q0.234375 -0.421875 0.625 -0.65625q0.40625 -0.234375 0.890625 -0.234375zm1.359375 1.875q0 -0.421875 -0.171875 -0.71875q-0.15625 -0.3125 -0.453125 -0.46875q-0.28125 -0.171875 -0.609375 -0.171875q-0.34375 0 -0.625 0.171875q-0.28125 0.15625 -0.453125 0.46875q-0.15625 0.296875 -0.15625 0.703125q0 0.421875 0.15625 0.734375q0.171875 0.3125 0.453125 0.484375q0.28125 0.15625 0.625 0.15625q0.328125 0 0.609375 -0.15625q0.296875 -0.171875 0.453125 -0.484375q0.171875 -0.3125 0.171875 -0.71875zm3.4526978 -1.890625q0.40625 0 0.734375 0.1875q0.34375 0.171875 0.53125 0.53125q0.1875 0.34375 0.1875 0.84375l0 2.15625l-0.59375 0l0 -2.0625q0 -0.546875 -0.28125 -0.828125q-0.265625 -0.296875 -0.75 -0.296875q-0.46875 0 -0.75 0.296875q-0.28125 0.296875 -0.28125 0.875l0 2.015625l-0.609375 0l0 -4.921875l0.609375 0l0 1.796875q0.171875 -0.28125 0.484375 -0.4375q0.328125 -0.15625 0.71875 -0.15625zm3.1818237 0.578125l0 2.140625q0 0.265625 0.109375 0.375q0.125 0.109375 0.390625 0.109375l0.453125 0l0 0.515625l-0.546875 0q-0.5 0 -0.765625 -0.234375q-0.25 -0.234375 -0.25 -0.765625l0 -2.140625l-0.46875 0l0 -0.5l0.46875 0l0 -0.921875l0.609375 0l0 0.921875l0.953125 0l0 0.5l-0.953125 0zm2.9697266 3.203125q-0.40625 0 -0.75 -0.140625q-0.328125 -0.140625 -0.53125 -0.390625q-0.1875 -0.265625 -0.203125 -0.609375l0.625 0q0.03125 0.28125 0.25 0.453125q0.234375 0.171875 0.609375 0.171875q0.34375 0 0.546875 -0.15625q0.203125 -0.15625 0.203125 -0.375q0 -0.25 -0.21875 -0.359375q-0.21875 -0.125 -0.65625 -0.234375q-0.40625 -0.109375 -0.671875 -0.21875q-0.25 -0.109375 -0.4375 -0.328125q-0.171875 -0.21875 -0.171875 -0.5625q0 -0.28125 0.15625 -0.515625q0.171875 -0.234375 0.46875 -0.359375q0.3125 -0.140625 0.703125 -0.140625q0.609375 0 0.984375 0.3125q0.375 0.296875 0.40625 0.828125l-0.609375 0q-0.03125 -0.28125 -0.234375 -0.453125q-0.203125 -0.171875 -0.5625 -0.171875q-0.328125 0 -0.53125 0.140625q-0.1875 0.125 -0.1875 0.359375q0 0.171875 0.109375 0.296875q0.125 0.109375 0.296875 0.1875q0.1875 0.0625 0.5 0.15625q0.390625 0.109375 0.640625 0.21875q0.25 0.09375 0.421875 0.296875q0.171875 0.203125 0.1875 0.546875q0 0.296875 -0.171875 0.53125q-0.171875 0.234375 -0.46875 0.375q-0.296875 0.140625 -0.703125 0.140625zm6.407959 -0.0625l-1.109375 -1.890625l-0.71875 0l0 1.890625l-0.609375 0l0 -4.640625l1.5 0q0.515625 0 0.875 0.1875q0.375 0.171875 0.546875 0.484375q0.1875 0.296875 0.1875 0.6875q0 0.484375 -0.28125 0.859375q-0.28125 0.359375 -0.828125 0.484375l1.171875 1.9375l-0.734375 0zm-1.828125 -2.390625l0.890625 0q0.484375 0 0.734375 -0.234375q0.25 -0.25 0.25 -0.65625q0 -0.40625 -0.25 -0.625q-0.234375 -0.234375 -0.734375 -0.234375l-0.890625 0l0 1.75zm6.7657013 0.421875q0 0.171875 -0.015625 0.375l-2.921875 0q0.03125 0.53125 0.359375 0.84375q0.34375 0.296875 0.828125 0.296875q0.390625 0 0.65625 -0.171875q0.265625 -0.1875 0.359375 -0.5l0.65625 0q-0.140625 0.53125 -0.578125 0.859375q-0.4375 0.328125 -1.09375 0.328125q-0.515625 0 -0.9375 -0.234375q-0.40625 -0.234375 -0.640625 -0.65625q-0.234375 -0.4375 -0.234375 -1.0q0 -0.5625 0.21875 -0.984375q0.234375 -0.4375 0.640625 -0.65625q0.421875 -0.234375 0.953125 -0.234375q0.515625 0 0.90625 0.234375q0.40625 0.21875 0.625 0.609375q0.21875 0.390625 0.21875 0.890625zm-0.625 -0.125q0 -0.34375 -0.15625 -0.59375q-0.15625 -0.25 -0.421875 -0.375q-0.25 -0.125 -0.578125 -0.125q-0.453125 0 -0.78125 0.296875q-0.328125 0.28125 -0.375 0.796875l2.3125 0zm2.704956 2.15625q-0.40625 0 -0.75 -0.140625q-0.328125 -0.140625 -0.53125 -0.390625q-0.1875 -0.265625 -0.203125 -0.609375l0.625 0q0.03125 0.28125 0.25 0.453125q0.234375 0.171875 0.609375 0.171875q0.34375 0 0.546875 -0.15625q0.203125 -0.15625 0.203125 -0.375q0 -0.25 -0.21875 -0.359375q-0.21875 -0.125 -0.65625 -0.234375q-0.40625 -0.109375 -0.671875 -0.21875q-0.25 -0.109375 -0.4375 -0.328125q-0.171875 -0.21875 -0.171875 -0.5625q0 -0.28125 0.15625 -0.515625q0.171875 -0.234375 0.46875 -0.359375q0.3125 -0.140625 0.703125 -0.140625q0.609375 0 0.984375 0.3125q0.375 0.296875 0.40625 0.828125l-0.609375 0q-0.03125 -0.28125 -0.234375 -0.453125q-0.203125 -0.171875 -0.5625 -0.171875q-0.328125 0 -0.53125 0.140625q-0.1875 0.125 -0.1875 0.359375q0 0.171875 0.109375 0.296875q0.125 0.109375 0.296875 0.1875q0.1875 0.0625 0.5 0.15625q0.390625 0.109375 0.640625 0.21875q0.25 0.09375 0.421875 0.296875q0.171875 0.203125 0.1875 0.546875q0 0.296875 -0.171875 0.53125q-0.171875 0.234375 -0.46875 0.375q-0.296875 0.140625 -0.703125 0.140625zm5.521393 -2.03125q0 0.171875 -0.015625 0.375l-2.921875 0q0.03125 0.53125 0.359375 0.84375q0.34375 0.296875 0.828125 0.296875q0.390625 0 0.65625 -0.171875q0.265625 -0.1875 0.359375 -0.5l0.65625 0q-0.140625 0.53125 -0.578125 0.859375q-0.4375 0.328125 -1.09375 0.328125q-0.515625 0 -0.9375 -0.234375q-0.40625 -0.234375 -0.640625 -0.65625q-0.234375 -0.4375 -0.234375 -1.0q0 -0.5625 0.21875 -0.984375q0.234375 -0.4375 0.640625 -0.65625q0.421875 -0.234375 0.953125 -0.234375q0.515625 0 0.90625 0.234375q0.40625 0.21875 0.625 0.609375q0.21875 0.390625 0.21875 0.890625zm-0.625 -0.125q0 -0.34375 -0.15625 -0.59375q-0.15625 -0.25 -0.421875 -0.375q-0.25 -0.125 -0.578125 -0.125q-0.453125 0 -0.78125 0.296875q-0.328125 0.28125 -0.375 0.796875l2.3125 0zm2.033081 -0.96875q0.15625 -0.3125 0.453125 -0.484375q0.296875 -0.171875 0.71875 -0.171875l0 0.625l-0.15625 0q-1.015625 0 -1.015625 1.109375l0 1.984375l-0.609375 0l0 -3.640625l0.609375 0l0 0.578125zm3.2327576 2.5l1.125 -3.078125l0.640625 0l-1.421875 3.640625l-0.703125 0l-1.4375 -3.640625l0.65625 0l1.140625 3.078125zm5.7028656 -1.40625q0 0.171875 -0.015625 0.375l-2.921875 0q0.03125 0.53125 0.359375 0.84375q0.34375 0.296875 0.828125 0.296875q0.390625 0 0.65625 -0.171875q0.265625 -0.1875 0.359375 -0.5l0.65625 0q-0.140625 0.53125 -0.578125 0.859375q-0.4375 0.328125 -1.09375 0.328125q-0.515625 0 -0.9375 -0.234375q-0.40625 -0.234375 -0.640625 -0.65625q-0.234375 -0.4375 -0.234375 -1.0q0 -0.5625 0.21875 -0.984375q0.234375 -0.4375 0.640625 -0.65625q0.421875 -0.234375 0.953125 -0.234375q0.515625 0 0.90625 0.234375q0.40625 0.21875 0.625 0.609375q0.21875 0.390625 0.21875 0.890625zm-0.625 -0.125q0 -0.34375 -0.15625 -0.59375q-0.15625 -0.25 -0.421875 -0.375q-0.25 -0.125 -0.578125 -0.125q-0.453125 0 -0.78125 0.296875q-0.328125 0.28125 -0.375 0.796875l2.3125 0zm1.189331 0.25q0 -0.546875 0.21875 -0.96875q0.234375 -0.421875 0.625 -0.65625q0.40625 -0.234375 0.90625 -0.234375q0.421875 0 0.78125 0.203125q0.375 0.1875 0.5625 0.5l0 -1.921875l0.609375 0l0 4.921875l-0.609375 0l0 -0.6875q-0.1875 0.328125 -0.546875 0.546875q-0.34375 0.203125 -0.8125 0.203125q-0.484375 0 -0.890625 -0.234375q-0.390625 -0.25 -0.625 -0.671875q-0.21875 -0.4375 -0.21875 -1.0zm3.09375 0.015625q0 -0.421875 -0.171875 -0.71875q-0.15625 -0.3125 -0.453125 -0.46875q-0.28125 -0.171875 -0.609375 -0.171875q-0.34375 0 -0.625 0.171875q-0.28125 0.15625 -0.453125 0.46875q-0.15625 0.296875 -0.15625 0.703125q0 0.421875 0.15625 0.734375q0.171875 0.3125 0.453125 0.484375q0.28125 0.15625 0.625 0.15625q0.328125 0 0.609375 -0.15625q0.296875 -0.171875 0.453125 -0.484375q0.171875 -0.3125 0.171875 -0.71875zm1.8276978 1.875q-0.171875 0 -0.296875 -0.125q-0.109375 -0.125 -0.109375 -0.296875q0 -0.171875 0.109375 -0.28125q0.125 -0.125 0.296875 -0.125q0.171875 0 0.28125 0.125q0.125 0.109375 0.125 0.28125q0 0.171875 -0.125 0.296875q-0.109375 0.125 -0.28125 0.125z" fill-rule="nonzero"/><path fill="#333333" d="m41.47801 520.0038l0.41835022 0.038269043l0.34233093 0.11401367l0.34233475 0.15203857l0.26631927 0.2662964l0.26604843 0.3043213l0.15229797 0.3043213l0.1140213 0.3803711l0.03800583 0.41833496l-0.03800583 0.3803711l-0.1140213 0.38031006l-0.15229797 0.3423462l-0.26604843 0.3043213l-0.26631927 0.22833252l-0.34233475 0.19000244l-0.34233093 0.076293945l-0.41835022 0.038024902l-0.3806076 -0.038024902l-0.38034058 -0.076293945l-0.34233475 -0.19000244l-0.26604843 -0.22833252l-0.22831345 -0.3043213l-0.1903038 -0.3423462l-0.07601547 -0.38031006l-0.03800583 -0.3803711l0.03800583 -0.41833496l0.07601547 -0.3803711l0.1903038 -0.3043213l0.22831345 -0.3043213l0.26604843 -0.2662964l0.34233475 -0.15203857l0.38034058 -0.11401367l0.3806076 -0.038269043zm0 -1.635376l-0.3806076 0.037963867l-0.34233475 0.038024902l-0.38034058 0.07598877l-0.3043251 0.11431885l-0.34233475 0.15203857l-0.30405807 0.15203857l-0.26631927 0.22827148l-0.26631546 0.22833252l-0.22831345 0.2662964l-0.2280426 0.26605225l-0.15229797 0.3043213l-0.15202713 0.3043213l-0.114292145 0.3423462l-0.07601547 0.3423462l-0.03800583 0.3803711l-0.03800583 0.38031006l0.03800583 0.3803711l0.03800583 0.34228516l0.07601547 0.3803711l0.114292145 0.3043213l0.15202713 0.3043213l0.15229797 0.3043213l0.2280426 0.3043213l0.22831345 0.22802734l0.26631546 0.26635742l0.26631927 0.19030762l0.30405807 0.15203857l0.34233475 0.15228271l0.3043251 0.11401367l0.38034058 0.07598877l0.34233475 0.038024902l0.3806076 0.038024902l0.38034058 -0.038024902l0.38034058 -0.038024902l0.34233475 -0.07598877l0.34233093 -0.11401367l0.30432892 -0.15228271l0.3043251 -0.15203857l0.30405807 -0.19030762l0.22830963 -0.26635742l0.26631927 -0.22802734l0.19003677 -0.3043213l0.1903038 -0.3043213l0.15203094 -0.3043213l0.0762825 -0.3043213l0.1140213 -0.3803711l0.03800583 -0.34228516l0 -0.3803711l0 -0.38031006l-0.03800583 -0.3803711l-0.1140213 -0.3423462l-0.0762825 -0.3423462l-0.15203094 -0.3043213l-0.1903038 -0.3043213l-0.19003677 -0.26605225l-0.26631927 -0.2662964l-0.22830963 -0.22833252l-0.30405807 -0.22827148l-0.3043251 -0.15203857l-0.30432892 -0.15203857l-0.34233093 -0.11431885l-0.34233475 -0.07598877l-0.38034058 -0.038024902l-0.38034058 -0.037963867z" fill-rule="evenodd"/><path fill="#333333" d="m57.339363 520.0038l0.4183464 0.038269043l0.34233475 0.11401367l0.34233475 0.15203857l0.26631927 0.2662964l0.26631927 0.3043213l0.15202713 0.3043213l0.1140213 0.3803711l0 0.41833496l0 0.3803711l-0.1140213 0.38031006l-0.15202713 0.3423462l-0.26631927 0.3043213l-0.26631927 0.22833252l-0.34233475 0.19000244l-0.34233475 0.076293945l-0.4183464 0.038024902l-0.38034058 -0.038024902l-0.38034058 -0.076293945l-0.34233093 -0.19000244l-0.26631927 -0.22833252l-0.22831345 -0.3043213l-0.19003677 -0.3423462l-0.0762825 -0.38031006l-0.03800583 -0.3803711l0.03800583 -0.41833496l0.0762825 -0.3803711l0.19003677 -0.3043213l0.22831345 -0.3043213l0.26631927 -0.2662964l0.34233093 -0.15203857l0.38034058 -0.11401367l0.38034058 -0.038269043zm0 -1.635376l-0.38034058 0.037963867l-0.38034058 0.038024902l-0.34233093 0.07598877l-0.30432892 0.11431885l-0.34233093 0.15203857l-0.30432892 0.15203857l-0.26631927 0.22827148l-0.26631927 0.22833252l-0.2280426 0.2662964l-0.22830963 0.26605225l-0.15202713 0.3043213l-0.15229797 0.3043213l-0.1140213 0.3423462l-0.07601547 0.3423462l-0.038276672 0.3803711l-0.03800583 0.38031006l0.03800583 0.3803711l0.038276672 0.34228516l0.07601547 0.3803711l0.1140213 0.3043213l0.15229797 0.3043213l0.15202713 0.3043213l0.22830963 0.3043213l0.2280426 0.22802734l0.26631927 0.26635742l0.26631927 0.19030762l0.30432892 0.15203857l0.34233093 0.15228271l0.30432892 0.11401367l0.34233093 0.07598877l0.38034058 0.038024902l0.38034058 0.038024902l0.38034058 -0.038024902l0.38034058 -0.038024902l0.34233475 -0.07598877l0.34233093 -0.11401367l0.30432892 -0.15228271l0.3043251 -0.15203857l0.3043251 -0.19030762l0.2280426 -0.26635742l0.26631927 -0.22802734l0.19030762 -0.3043213l0.19003296 -0.3043213l0.15229797 -0.3043213l0.07601547 -0.3043213l0.1140213 -0.3803711l0.03800583 -0.34228516l0 -0.3803711l0 -0.38031006l-0.03800583 -0.3803711l-0.1140213 -0.3423462l-0.07601547 -0.3423462l-0.15229797 -0.3043213l-0.19003296 -0.3043213l-0.19030762 -0.26605225l-0.26631927 -0.2662964l-0.2280426 -0.22833252l-0.3043251 -0.22827148l-0.3043251 -0.15203857l-0.30432892 -0.15203857l-0.34233093 -0.11431885l-0.34233475 -0.07598877l-0.38034058 -0.038024902l-0.38034058 -0.037963867z" fill-rule="evenodd"/><path fill="#333333" d="m79.667046 514.98303l-0.07601166 0.038024902l-0.038009644 0.076049805l0 0.07623291l0 8.253784l0 0.456604l0.1140213 0.38031006l0.19030762 0.3803711l0.26604462 0.3043213l0.30432892 0.22802734l0.34233093 0.19030762l0.41861725 0.11401367l0.45635223 0.038024902l0.26631927 -0.038024902l0.30432892 -0.037963867l0.30405426 -0.076049805l0.34233856 -0.11401367l0.038276672 -0.038269043l0.07601166 -0.07598877l0 -0.038024902l0 -0.076049805l-0.19030762 -1.0269775l-0.038002014 -0.07598877l-0.038009644 -0.076293945l-0.07601166 -0.038024902l-0.11429596 0.038024902l-0.30405426 0.076293945l-0.26631927 0l-0.30432892 -0.038024902l-0.1140213 -0.038269043l-0.11428833 -0.076049805l-0.07601166 -0.07598877l-0.07601929 -0.11401367l-0.038002014 -0.11431885l0 -0.15203857l0 -8.139709l-0.038009644 -0.07623291l-0.038276672 -0.076049805l-0.07601166 -0.038024902z" fill-rule="evenodd"/><path fill="#333333" d="m65.59337 518.3684l-0.34233093 0.037963867l-0.34233093 0.038024902l-0.34233856 0.07598877l-0.3043213 0.076049805l-0.30432892 0.11425781l-0.26631927 0.15203857l-0.26604843 0.19030762l-0.22831345 0.22802734l-0.22830963 0.22833252l-0.19003677 0.22833252l-0.15229797 0.3043213l-0.1140213 0.26605225l-0.1140213 0.3043213l-0.0762825 0.3423462l-0.038009644 0.38031006l-0.03800583 0.3423462l0 3.5373535l0.03800583 0.076293945l0.038009644 0.07598877l0.0762825 0.038024902l1.407341 0l0.07601166 -0.038024902l0.038009644 -0.07598877l0 -0.076293945l0 -3.4993286l0.03800583 -0.3803711l0.11428833 -0.3423462l0.1140213 -0.26605225l0.22831726 -0.2662964l0.2280426 -0.19030762l0.3043213 -0.15203857l0.30432892 -0.07598877l0.34233093 -0.038269043l0.34233856 0.038269043l0.34233093 0.07598877l0.26631927 0.15203857l0.26631927 0.19030762l0.19003296 0.2662964l0.15229797 0.26605225l0.07601929 0.3423462l0.038002014 0.3803711l0 3.4993286l0 0.076293945l0.038009644 0.07598877l0.07601166 0.038024902l1.4453506 0l0.038276672 -0.038024902l0.038002014 -0.07598877l0.038009644 -0.076293945l0 -3.5373535l-0.038009644 -0.3423462l-0.038002014 -0.38031006l-0.076286316 -0.3423462l-0.07601166 -0.3043213l-0.15203094 -0.26605225l-0.15229797 -0.3043213l-0.19003296 -0.22833252l-0.22830963 -0.22833252l-0.22831726 -0.22802734l-0.26604462 -0.19030762l-0.26631927 -0.15203857l-0.30432892 -0.11425781l-0.30432892 -0.076049805l-0.3043213 -0.07598877l-0.34233856 -0.038024902l-0.38034058 -0.037963867z" fill-rule="evenodd"/><path fill="#333333" d="m73.99968 520.0038l0.4183426 0.038269043l0.34233093 0.11401367l0.34233856 0.19006348l0.3043213 0.22827148l0.2280426 0.3043213l0.15229797 0.3043213l0.1140213 0.3803711l0.038009644 0.41833496l-0.038009644 0.3803711l-0.1140213 0.38031006l-0.15229797 0.3423462l-0.2280426 0.3043213l-0.3043213 0.22833252l-0.34233856 0.19000244l-0.34233093 0.076293945l-0.4183426 0.038024902l-0.38061523 -0.038024902l-0.38034058 -0.076293945l-0.3043213 -0.19000244l-0.3040619 -0.22833252l-0.22830963 -0.3043213l-0.19030762 -0.3423462l-0.1140213 -0.38031006l-0.038002014 -0.3803711l0.038002014 -0.41833496l0.1140213 -0.3803711l0.19030762 -0.3043213l0.22830963 -0.3043213l0.3040619 -0.22827148l0.3043213 -0.19006348l0.38034058 -0.11401367l0.38061523 -0.038269043zm0.038002014 -1.635376l-0.38034058 0.037963867l-0.3806076 0.038024902l-0.34233093 0.07598877l-0.34233856 0.11431885l-0.30405426 0.15203857l-0.30432892 0.15203857l-0.3043213 0.22827148l-0.26631927 0.22833252l-0.22831726 0.2662964l-0.2280426 0.26605225l-0.19029999 0.3043213l-0.1140213 0.3043213l-0.11429596 0.3423462l-0.1140213 0.3423462l-0.038002014 0.3803711l0 0.38031006l0 0.3803711l0.038002014 0.34228516l0.07601929 0.3423462l0.11428833 0.3423462l0.15203094 0.3043213l0.15229797 0.3043213l0.2280426 0.2662964l0.22830963 0.26605225l0.22830963 0.22833252l0.26605225 0.22833252l0.30432892 0.15203857l0.3043213 0.15228271l0.30432892 0.11401367l0.30432892 0.07598877l0.38034058 0.038024902l0.34233093 0.038024902l0.34233093 -0.038024902l0.34233093 -0.038024902l0.34233856 -0.11401367l0.3043213 -0.15228271l0.26631927 -0.15203857l0.2280426 -0.22833252l0.22831726 -0.2659912l0.22830963 -0.26635742l0 0.9127197l0 0.076293945l0.038009644 0.07598877l0.07601166 0.038024902l1.2933197 0l0.07601166 -0.038024902l0.038009644 -0.07598877l0.038009644 -0.076293945l0 -3.347046l-0.038009644 -0.3803711l-0.038009644 -0.34228516l-0.07601166 -0.3423462l-0.11428833 -0.3043213l-0.15203094 -0.3043213l-0.19030762 -0.3043213l-0.19003296 -0.26635742l-0.22830963 -0.26605225l-0.26631927 -0.22827148l-0.3040619 -0.19030762l-0.26631927 -0.15203857l-0.34233093 -0.15203857l-0.30432892 -0.11431885l-0.34233093 -0.07598877l-0.38034058 -0.038024902l-0.38034058 -0.037963867z" fill-rule="evenodd"/><path fill="#333333" d="m87.3124 520.0038l0.3806076 0.038269043l0.38034058 0.11401367l0.30432892 0.19006348l0.30405426 0.22827148l0.22830963 0.3043213l0.19030762 0.3043213l0.07601166 0.3803711l0.038009644 0.41833496l-0.038009644 0.3803711l-0.07601166 0.38031006l-0.19030762 0.3423462l-0.22830963 0.3043213l-0.30405426 0.22833252l-0.30432892 0.19000244l-0.38034058 0.076293945l-0.3806076 0.038024902l-0.41835022 -0.038024902l-0.34233093 -0.076293945l-0.34233093 -0.19000244l-0.30432892 -0.22833252l-0.2280426 -0.3043213l-0.15229797 -0.3423462l-0.1140213 -0.38031006l-0.038009644 -0.3803711l0.038009644 -0.41833496l0.1140213 -0.3803711l0.15229797 -0.3043213l0.2280426 -0.3043213l0.30432892 -0.22827148l0.34233093 -0.19006348l0.34233093 -0.11401367l0.41835022 -0.038269043zm0.038276672 -1.635376l-0.41861725 0.037963867l-0.34233856 0.038024902l-0.38033295 0.07598877l-0.34233856 0.11431885l-0.3043213 0.15203857l-0.30432892 0.15203857l-0.26605225 0.22827148l-0.26631927 0.22833252l-0.26631927 0.2662964l-0.19003296 0.26605225l-0.19030762 0.3043213l-0.15202332 0.3043213l-0.11429596 0.3423462l-0.07601166 0.3423462l-0.038009644 0.3803711l-0.038002014 0.38031006l0.038002014 0.3803711l0.038009644 0.34228516l0.07601166 0.3423462l0.11429596 0.3423462l0.1140213 0.3043213l0.19003296 0.3043213l0.19030762 0.2662964l0.22830963 0.26605225l0.26605225 0.22833252l0.26631927 0.22833252l0.26631927 0.15203857l0.3043213 0.15228271l0.30432892 0.11401367l0.34233093 0.07598877l0.34233093 0.038024902l0.34233856 0.038024902l0.38034058 -0.038024902l0.34233093 -0.038024902l0.30432892 -0.11401367l0.3043213 -0.15228271l0.26605225 -0.15203857l0.26631927 -0.22833252l0.22830963 -0.2659912l0.19004059 -0.26635742l0 0.9127197l0.038276672 0.076293945l0.038002014 0.07598877l0.038009644 0.038024902l1.3313293 0l0.038002014 -0.038024902l0.07601929 -0.07598877l0 -0.076293945l0 -3.347046l0 -0.3803711l-0.07601929 -0.34228516l-0.07601166 -0.3423462l-0.11428833 -0.3043213l-0.1140213 -0.3043213l-0.19030762 -0.3043213l-0.2280426 -0.26635742l-0.22830963 -0.26605225l-0.26631927 -0.22827148l-0.26631927 -0.19030762l-0.3040619 -0.15203857l-0.3043213 -0.15203857l-0.34233856 -0.11431885l-0.34233093 -0.07598877l-0.34233093 -0.038024902l-0.38034058 -0.037963867z" fill-rule="evenodd"/><path fill="#333333" d="m33.984684 518.3684l-0.38034058 0.037963867l-0.34233475 0.038024902l-0.34233093 0.07598877l-0.34233475 0.11431885l-0.3043251 0.15203857l-0.304327 0.15203857l-0.26631927 0.22827148l-0.26631927 0.22833252l-0.2280426 0.2662964l-0.19030571 0.26605225l-0.19030571 0.3043213l-0.114019394 0.3043213l-0.1140213 0.3423462l-0.07601547 0.3423462l-0.0762825 0.3803711l0 0.38031006l0 0.3803711l0.0762825 0.34228516l0.07601547 0.3423462l0.1140213 0.3423462l0.114019394 0.3043213l0.19030571 0.3043213l0.19030571 0.2662964l0.2280426 0.26605225l0.26631927 0.22833252l0.26631927 0.22833252l0.304327 0.15203857l0.3043251 0.15228271l0.34233475 0.11401367l0.34233093 0.07598877l0.34233475 0.038024902l0.38034058 0.038024902l0.34233093 -0.038024902l0.30432892 0l0.30405426 -0.07598877l0.26631927 -0.076049805l0.26631927 -0.11401367l0.26631927 -0.11425781l0.26631927 -0.15203857l0.2280426 -0.19030762l0.3043251 -0.26635742l0.26631927 -0.3040161l0.038009644 -0.076293945l0 -0.076049805l-0.038009644 -0.07598877l-0.03800583 -0.038024902l-1.0650063 -0.76068115l-0.0762825 -0.037963867l-0.07601547 0l-0.07601547 0.037963867l-0.03800583 0.038024902l-0.1903038 0.22802734l-0.2280426 0.15234375l-0.22831345 0.15197754l-0.26631927 0.076049805l-0.26631927 0.076293945l-0.26604843 0l-0.38034058 -0.038024902l-0.34233475 -0.076293945l-0.3043251 -0.19000244l-0.3043251 -0.22833252l-0.22831345 -0.3043213l-0.15202713 -0.3423462l-0.114292145 -0.38031006l0 -0.3803711l0 -0.41833496l0.114292145 -0.3803711l0.15202713 -0.3043213l0.22831345 -0.3043213l0.3043251 -0.22827148l0.3043251 -0.19006348l0.34233475 -0.11401367l0.38034058 -0.038269043l0.26604843 0.038269043l0.26631927 0.038024902l0.26631927 0.11401367l0.22831345 0.11401367l0.2280426 0.19030762l0.1903038 0.19000244l0.03800583 0.038269043l0.07601547 0.038024902l0.07601547 0l0.0762825 -0.038024902l1.0270004 -0.7229004l0.07601166 -0.076049805l0.038009644 -0.07598877l0 -0.076049805l-0.038009644 -0.07598877l-0.26631927 -0.3043213l-0.3043251 -0.2662964l-0.2280426 -0.15203857l-0.26631927 -0.15228271l-0.26631927 -0.15203857l-0.26631927 -0.11431885l-0.26631927 -0.07598877l-0.30405426 -0.038024902l-0.30432892 -0.038024902l-0.34233093 -0.037963867z" fill-rule="evenodd"/><path fill="#333333" d="m49.84604 518.3684l-0.38034058 0.037963867l-0.34233475 0.038024902l-0.34233475 0.07598877l-0.34233093 0.11431885l-0.3043251 0.15203857l-0.30432892 0.15203857l-0.26631927 0.22827148l-0.26604843 0.22833252l-0.22831345 0.2662964l-0.1903038 0.26605225l-0.19003677 0.3043213l-0.11428833 0.3043213l-0.1140213 0.3423462l-0.07601547 0.3423462l-0.07601547 0.3803711l0 0.38031006l0 0.3803711l0.07601547 0.34228516l0.07601547 0.3423462l0.1140213 0.3423462l0.11428833 0.3043213l0.19003677 0.3043213l0.1903038 0.2662964l0.22831345 0.26605225l0.26604843 0.22833252l0.26631927 0.22833252l0.30432892 0.15203857l0.3043251 0.15228271l0.34233093 0.11401367l0.34233475 0.07598877l0.34233475 0.038024902l0.38034058 0.038024902l0.34233093 -0.038024902l0.30432892 0l0.3043251 -0.07598877l0.26631927 -0.076049805l0.26604843 -0.11401367l0.26631927 -0.11425781l0.26631927 -0.15203857l0.22831345 -0.19030762l0.30405426 -0.26635742l0.26631927 -0.3040161l0.038009644 -0.076293945l0 -0.076049805l-0.038009644 -0.07598877l-0.03800583 -0.038024902l-1.0650063 -0.76068115l-0.07601547 -0.037963867l-0.07601547 0l-0.0762825 0.037963867l-0.03800583 0.038024902l-0.19003677 0.22802734l-0.22830963 0.15234375l-0.22831345 0.15197754l-0.26604843 0.076049805l-0.26631927 0.076293945l-0.26631927 0l-0.38034058 -0.038024902l-0.34233475 -0.076293945l-0.3043251 -0.19000244l-0.30432892 -0.22833252l-0.22830963 -0.3043213l-0.15202713 -0.3423462l-0.1140213 -0.38031006l0 -0.3803711l0 -0.41833496l0.1140213 -0.3803711l0.15202713 -0.3043213l0.22830963 -0.3043213l0.30432892 -0.22827148l0.3043251 -0.19006348l0.34233475 -0.11401367l0.38034058 -0.038269043l0.26631927 0.038269043l0.26631927 0.038024902l0.26604843 0.11401367l0.22831345 0.11401367l0.22830963 0.19030762l0.19003677 0.19000244l0.03800583 0.038269043l0.0762825 0.038024902l0.07601547 0l0.07601547 -0.038024902l1.0270004 -0.7229004l0.07601166 -0.076049805l0.038009644 -0.07598877l0 -0.076049805l-0.038009644 -0.07598877l-0.26631927 -0.3043213l-0.30405426 -0.2662964l-0.22831345 -0.15203857l-0.26631927 -0.15228271l-0.26631927 -0.15203857l-0.26604843 -0.11431885l-0.26631927 -0.07598877l-0.3043251 -0.038024902l-0.30432892 -0.038024902l-0.34233093 -0.037963867z" fill-rule="evenodd"/><path fill="#009dff" d="m16.335379 521.5634l-1.2170362 2.130005l7.3030214 4.184021l1.1790276 -2.092041l-2.3963318 -4.221985z" fill-rule="evenodd"/><path fill="#ee4499" d="m22.421364 515.2874l-7.3030214 4.18396l1.2170362 2.092041l4.868681 0l2.3963318 -4.184021l-1.1790276 -2.09198z" fill-rule="evenodd"/><path fill="#ffea00" d="m23.600391 517.3794l-2.3963318 4.184021l2.3963318 4.221985l2.4343414 0l0 -8.406006z" fill-rule="evenodd"/><path fill="#b033dd" d="m16.107065 519.16705l-0.26604939 0.038024902l-0.22831154 0.038024902l-0.22831249 0.11425781l-0.19003487 0.076049805l-0.22831249 0.11401367l-0.34233284 0.3043213l-0.304327 0.38031006l-0.11402035 0.19030762l-0.1140213 0.22808838l-0.07628441 0.19030762l-0.038006783 0.22827148l-0.038006783 0.26605225l-0.038007736 0.22833252l0.038007736 0.2662964l0.038006783 0.22802734l0.038006783 0.22833252l0.07628441 0.22833252l0.1140213 0.22802734l0.11402035 0.19030762l0.304327 0.3423462l0.34233284 0.3043213l0.22831249 0.11401367l0.19003487 0.11401367l0.22831249 0.076293945l0.22831154 0.07598877l0.26604939 0.038024902l0.22831345 0l0.38034058 -0.038024902l0.38033867 -0.11425781l0.38034058 -0.15203857l0.34233475 -0.15203857l3.3853264 -1.9779663l-3.3853264 -1.9400024l-0.34233475 -0.15203857l-0.38034058 -0.15197754l-0.38033867 -0.11431885l-0.38034058 -0.038024902z" fill-rule="evenodd"/><path fill="#22ccbb" d="m21.20406 521.5634l0 3.9176636l0 0.3423462l0.0762825 0.41833496l0.07601547 0.41864014l0.15202713 0.3423462l0.15229797 0.19000244l0.15202904 0.19030762l0.15229797 0.19006348l0.19003487 0.15228271l0.19030571 0.11401367l0.19003487 0.11401367l0.45662498 0.15234375l0.45635414 0.07598877l0.22831154 0.038024902l0.2280426 -0.038024902l0.22831154 -0.038024902l0.22831345 -0.07598877l0.2280426 -0.076293945l0.22831154 -0.11401367l0.22831154 -0.15203857l0.19003487 -0.15228271l0.15229797 -0.15203857l0.15202904 -0.19030762l0.15202904 -0.19006348l0.11429024 -0.19024658l0.15202904 -0.45635986l0.076013565 -0.45666504l0 -0.22802734l0 -0.22833252l-0.038007736 -0.22802734l-0.076013565 -0.22833252l-0.076013565 -0.22827148l-0.1140213 -0.22802734l-0.22831345 -0.30438232l-0.3043251 -0.3043213l-0.34233475 -0.22827148l-0.3043251 -0.19006348l-3.3473186 -1.9779663z" fill-rule="evenodd"/><path fill="#ff9900" d="m23.448364 514.94507l-0.45635414 0.07598877l-0.45662498 0.19030762l-0.19003487 0.11401367l-0.19030571 0.11401367l-0.19003487 0.15234375l-0.15229797 0.19000244l-0.15202904 0.19030762l-0.15229797 0.19006348l-0.15202713 0.34228516l-0.07601547 0.41864014l-0.0762825 0.3803711l0 0.38031006l0 3.8796997l3.3473186 -1.9400024l0.3043251 -0.19000244l0.34233475 -0.26635742l0.3043251 -0.2662964l0.22831345 -0.3043213l0.1140213 -0.22802734l0.076013565 -0.22833252l0.076013565 -0.22833252l0.038007736 -0.22802734l0 -0.22833252l0 -0.2662964l-0.076013565 -0.45635986l-0.15202904 -0.41833496l-0.11429024 -0.19030762l-0.15202904 -0.22802734l-0.15202904 -0.15234375l-0.15229797 -0.19000244l-0.19003487 -0.15228271l-0.22831154 -0.11401367l-0.22831154 -0.11407471l-0.2280426 -0.11425781l-0.22831345 -0.038024902l-0.22831154 -0.038024902l-0.2280426 -0.037963867z" fill-rule="evenodd"/></g></svg>