<svg version="1.1" viewBox="0.0 0.0 377.9527559055118 377.9527559055118" fill="none" stroke="none" stroke-linecap="square" stroke-miterlimit="10" xmlns:xlink="http://www.w3.org/1999/xlink" xmlns="http://www.w3.org/2000/svg"><clipPath id="p.0"><path d="m0 0l377.95276 0l0 377.95276l-377.95276 0l0 -377.95276z" clip-rule="nonzero"/></clipPath><g clip-path="url(#p.0)"><path fill="#ffffff" d="m0 0l377.95276 0l0 377.95276l-377.95276 0z" fill-rule="evenodd"/><path fill="#ffea00" d="m297.51566 -0.013824059l-9.593201 1.2246604l-9.370575 2.3483176l-9.035645 3.4719748l-4.23999 2.1445084l-226.79309 119.78765l0 0.10281372l-4.127701 2.2473145l-7.808153 5.513672l-6.917595 6.229721l-5.9107904 7.046753l-5.0202312 7.658188l-3.9050622 8.271408l-2.677588 8.884659l-1.3378088 9.191254l-0.112305045 4.7994537l0.112305045 4.7994385l1.3378088 9.191269l2.677588 8.884644l3.9050622 8.271408l5.0202312 7.7610016l5.9107904 6.945755l6.917595 6.330719l7.808153 5.412674l4.127701 2.2473145l0 0.100997925l226.79309 119.89046l0 -0.10281372l4.23999 2.1445312l9.035645 3.4719543l9.370575 2.3501282l9.593201 1.2246704l9.817841 0.1027832l9.815826 -1.1236572l9.705536 -2.2473145l9.370575 -3.574768l4.574951 -2.245514l4.460663 -2.5539246l8.032776 -5.717499l7.0279236 -6.536316l5.9127502 -7.147766l4.795624 -7.8638l3.682434 -8.271423l2.454956 -8.578033l1.3377991 -8.78363l0 -4.4928284l0.11230469 0l0 -239.77911l-0.11230469 0l0 -4.391823l-1.3377991 -8.884647l-2.454956 -8.57803l-3.682434 -8.27142l-4.795624 -7.76099l-5.9127502 -7.2505665l-7.0279236 -6.536331l-8.032776 -5.7192907l-4.460663 -2.4511242l-4.574951 -2.3483176l-9.370575 -3.471975l-9.705536 -2.3483176l-9.815826 -1.0208509z" fill-rule="evenodd"/><path fill="#000000" fill-opacity="0.0" d="m89.50387 67.79944l247.09491 0l0 242.35312l-247.09491 0z" fill-rule="evenodd"/><path fill="#595959" d="m162.75444 156.17914q0.796875 -21.40625 14.0 -33.0q13.203125 -11.609375 35.796875 -11.609375q15.000015 0 25.70314 5.203125q10.703125 5.203125 16.203125 14.203125q5.5 9.0 5.5 20.203125q0 13.203125 -6.609375 21.5q-6.59375 8.296875 -15.390625 11.296875l0 0.796875q11.390625 3.796875 17.984375 12.609375q6.609375 8.796875 6.609375 22.59375q0 12.40625 -5.703125 21.90625q-5.703125 9.5 -16.609375 14.90625q-10.890625 5.390625 -25.89064 5.390625q-24.0 0 -38.296875 -11.796875q-14.296875 -11.8125 -15.09375 -35.609375l33.1875 0q0.203125 8.796875 5.0 13.90625q4.8125 5.09375 14.0 5.09375q7.8125153 0 12.10939 -4.5q4.296875 -4.5 4.296875 -11.890625q0 -9.609375 -6.109375 -13.90625q-6.0937653 -4.296875 -19.48439 -4.296875l-6.40625 0l0 -27.796875l6.40625 0q10.1875 0 16.48439 -3.5q6.3125 -3.5 6.3125 -12.5q0 -7.203125 -4.0 -11.203125q-4.0 -4.0 -11.000015 -4.0q-7.609375 0 -11.3125 4.609375q-3.6875 4.59375 -4.296875 11.390625l-33.390625 0z" fill-rule="nonzero"/></g></svg>