<svg version="1.1" viewBox="0.0 0.0 377.9527559055118 377.9527559055118" fill="none" stroke="none" stroke-linecap="square" stroke-miterlimit="10" xmlns:xlink="http://www.w3.org/1999/xlink" xmlns="http://www.w3.org/2000/svg"><clipPath id="p.0"><path d="m0 0l377.95276 0l0 377.95276l-377.95276 0l0 -377.95276z" clip-rule="nonzero"/></clipPath><g clip-path="url(#p.0)"><path fill="#ffffff" d="m0 0l377.95276 0l0 377.95276l-377.95276 0z" fill-rule="evenodd"/><path fill="#b033dd" d="m297.51566 -0.013824059l-9.593201 1.2246604l-9.370575 2.3483176l-9.035645 3.4719748l-4.23999 2.1445084l-226.79309 119.78765l0 0.10281372l-4.127701 2.2473145l-7.808153 5.513672l-6.917595 6.229721l-5.9107904 7.046753l-5.0202312 7.658188l-3.9050622 8.271408l-2.677588 8.884659l-1.3378088 9.191254l-0.112305045 4.7994537l0.112305045 4.7994385l1.3378088 9.191269l2.677588 8.884644l3.9050622 8.271408l5.0202312 7.7610016l5.9107904 6.945755l6.917595 6.330719l7.808153 5.412674l4.127701 2.2473145l0 0.100997925l226.79309 119.89046l0 -0.10281372l4.23999 2.1445312l9.035645 3.4719543l9.370575 2.3501282l9.593201 1.2246704l9.817841 0.1027832l9.815826 -1.1236572l9.705536 -2.2473145l9.370575 -3.574768l4.574951 -2.245514l4.460663 -2.5539246l8.032776 -5.717499l7.0279236 -6.536316l5.9127502 -7.147766l4.795624 -7.8638l3.682434 -8.271423l2.454956 -8.578033l1.3377991 -8.78363l0 -4.4928284l0.11230469 0l0 -239.77911l-0.11230469 0l0 -4.391823l-1.3377991 -8.884647l-2.454956 -8.57803l-3.682434 -8.27142l-4.795624 -7.76099l-5.9127502 -7.2505665l-7.0279236 -6.536331l-8.032776 -5.7192907l-4.460663 -2.4511242l-4.574951 -2.3483176l-9.370575 -3.471975l-9.705536 -2.3483176l-9.815826 -1.0208509z" fill-rule="evenodd"/><path fill="#000000" fill-opacity="0.0" d="m89.50387 67.79944l247.09491 0l0 242.35312l-247.09491 0z" fill-rule="evenodd"/><path fill="#ffffff" d="m230.55444 154.38226q-1.609375 -7.40625 -5.609375 -11.109375q-4.0 -3.703125 -11.390625 -3.703125q-11.40625 0 -16.40625 9.90625q-5.0 9.90625 -5.203125 31.296875q4.40625 -7.0 12.703125 -11.0q8.296875 -4.0 18.296875 -4.0q19.609375 0 31.5 12.40625q11.90625 12.390625 11.90625 34.59375q0 14.609375 -5.90625 25.609375q-5.890625 11.0 -17.203125 17.203125q-11.296875 6.1875 -26.6875 6.1875q-30.796875 0 -42.796875 -19.296875q-12.0 -19.296875 -12.0 -55.5q0 -38.0 12.6875 -56.5q12.703125 -18.5 40.703125 -18.5q15.0 0 25.296875 5.90625q10.3125 5.890625 15.609375 15.5q5.296875 9.59375 6.296875 21.0l-31.796875 0zm-15.796875 38.390625q-8.609375 0 -14.3125 5.109375q-5.6875 5.09375 -5.6875 14.5q0 9.59375 5.296875 15.0q5.296875 5.390625 15.09375 5.390625q8.796875 0 13.890625 -5.296875q5.109375 -5.296875 5.109375 -14.5q0 -9.40625 -5.0 -14.796875q-5.0 -5.40625 -14.390625 -5.40625z" fill-rule="nonzero"/></g></svg>