<svg version="1.1" viewBox="0.0 0.0 377.9527559055118 377.9527559055118" fill="none" stroke="none" stroke-linecap="square" stroke-miterlimit="10" xmlns:xlink="http://www.w3.org/1999/xlink" xmlns="http://www.w3.org/2000/svg"><clipPath id="p.0"><path d="m0 0l377.95276 0l0 377.95276l-377.95276 0l0 -377.95276z" clip-rule="nonzero"/></clipPath><g clip-path="url(#p.0)"><path fill="#ffffff" d="m0 0l377.95276 0l0 377.95276l-377.95276 0z" fill-rule="evenodd"/><path fill="#ee4499" d="m297.51566 -0.013824059l-9.593201 1.2246604l-9.370575 2.3483176l-9.035645 3.4719748l-4.23999 2.1445084l-226.79309 119.78765l0 0.10281372l-4.127701 2.2473145l-7.808153 5.513672l-6.917595 6.229721l-5.9107904 7.046753l-5.0202312 7.658188l-3.9050622 8.271408l-2.677588 8.884659l-1.3378088 9.191254l-0.112305045 4.7994537l0.112305045 4.7994385l1.3378088 9.191269l2.677588 8.884644l3.9050622 8.271408l5.0202312 7.7610016l5.9107904 6.945755l6.917595 6.330719l7.808153 5.412674l4.127701 2.2473145l0 0.100997925l226.79309 119.89046l0 -0.10281372l4.23999 2.1445312l9.035645 3.4719543l9.370575 2.3501282l9.593201 1.2246704l9.817841 0.1027832l9.815826 -1.1236572l9.705536 -2.2473145l9.370575 -3.574768l4.574951 -2.245514l4.460663 -2.5539246l8.032776 -5.717499l7.0279236 -6.536316l5.9127502 -7.147766l4.795624 -7.8638l3.682434 -8.271423l2.454956 -8.578033l1.3377991 -8.78363l0 -4.4928284l0.11230469 0l0 -239.77911l-0.11230469 0l0 -4.391823l-1.3377991 -8.884647l-2.454956 -8.57803l-3.682434 -8.27142l-4.795624 -7.76099l-5.9127502 -7.2505665l-7.0279236 -6.536331l-8.032776 -5.7192907l-4.460663 -2.4511242l-4.574951 -2.3483176l-9.370575 -3.471975l-9.705536 -2.3483176l-9.815826 -1.0208509z" fill-rule="evenodd"/><path fill="#000000" fill-opacity="0.0" d="m89.50387 67.79944l247.09491 0l0 242.35312l-247.09491 0z" fill-rule="evenodd"/><path fill="#ffffff" d="m259.8482 144.77289l-62.39064 0l0 27.609375q4.0 -4.40625 11.1875 -7.203125q7.203125 -2.796875 15.60939 -2.796875q15.0 0 24.890625 6.796875q9.90625 6.796875 14.5 17.59375q4.609375 10.796875 4.609375 23.40625q0 23.390625 -13.203125 37.09375q-13.203125 13.703125 -37.203125 13.703125q-16.000015 0 -27.79689 -5.5q-11.796875 -5.5 -18.203125 -15.296875q-6.390625 -9.796875 -7.0 -22.609375l33.40625 0q1.203125 6.203125 5.796875 10.3125q4.59375 4.09375 12.59375 4.09375q9.406265 0 14.000015 -6.0q4.609375 -6.0 4.609375 -16.0q0 -9.796875 -4.8125 -15.0q-4.796875 -5.203125 -13.98439 -5.203125q-6.8125 0 -11.21875 3.3125q-4.390625 3.296875 -5.78125 8.6875l-33.0 0l0 -87.0l93.39064 0l0 30.0z" fill-rule="nonzero"/></g></svg>