<svg version="1.1" viewBox="0.0 0.0 377.9527559055118 377.9527559055118" fill="none" stroke="none" stroke-linecap="square" stroke-miterlimit="10" xmlns:xlink="http://www.w3.org/1999/xlink" xmlns="http://www.w3.org/2000/svg"><clipPath id="p.0"><path d="m0 0l377.95276 0l0 377.95276l-377.95276 0l0 -377.95276z" clip-rule="nonzero"/></clipPath><g clip-path="url(#p.0)"><path fill="#ffffff" d="m0 0l377.95276 0l0 377.95276l-377.95276 0z" fill-rule="evenodd"/><path fill="#22ccbb" d="m297.51566 -0.013824059l-9.593201 1.2246604l-9.370575 2.3483176l-9.035645 3.4719748l-4.23999 2.1445084l-226.79309 119.78765l0 0.10281372l-4.127701 2.2473145l-7.808153 5.513672l-6.917595 6.229721l-5.9107904 7.046753l-5.0202312 7.658188l-3.9050622 8.271408l-2.677588 8.884659l-1.3378088 9.191254l-0.112305045 4.7994537l0.112305045 4.7994385l1.3378088 9.191269l2.677588 8.884644l3.9050622 8.271408l5.0202312 7.7610016l5.9107904 6.945755l6.917595 6.330719l7.808153 5.412674l4.127701 2.2473145l0 0.100997925l226.79309 119.89046l0 -0.10281372l4.23999 2.1445312l9.035645 3.4719543l9.370575 2.3501282l9.593201 1.2246704l9.817841 0.1027832l9.815826 -1.1236572l9.705536 -2.2473145l9.370575 -3.574768l4.574951 -2.245514l4.460663 -2.5539246l8.032776 -5.717499l7.0279236 -6.536316l5.9127502 -7.147766l4.795624 -7.8638l3.682434 -8.271423l2.454956 -8.578033l1.3377991 -8.78363l0 -4.4928284l0.11230469 0l0 -239.77911l-0.11230469 0l0 -4.391823l-1.3377991 -8.884647l-2.454956 -8.57803l-3.682434 -8.27142l-4.795624 -7.76099l-5.9127502 -7.2505665l-7.0279236 -6.536331l-8.032776 -5.7192907l-4.460663 -2.4511242l-4.574951 -2.3483176l-9.370575 -3.471975l-9.705536 -2.3483176l-9.815826 -1.0208509z" fill-rule="evenodd"/><path fill="#000000" fill-opacity="0.0" d="m89.50387 67.79944l247.09491 0l0 242.35312l-247.09491 0z" fill-rule="evenodd"/><path fill="#ffffff" d="m163.7482 233.56976q6.796875 -5.390625 6.203125 -5.0q19.59375 -16.1875 30.890625 -26.59375q11.3125 -10.40625 19.109375 -21.796875q7.796875 -11.40625 7.796875 -22.203125q0 -8.203125 -3.796875 -12.796875q-3.796875 -4.609375 -11.40625 -4.609375q-7.59375 0 -11.890625 5.703125q-4.296875 5.703125 -4.296875 16.109375l-33.0 0q0.390625 -17.0 7.28125 -28.40625q6.90625 -11.40625 18.203125 -16.796875q11.3125 -5.40625 25.109375 -5.40625q23.796875 0 35.890625 12.203125q12.109375 12.203125 12.109375 31.796875q0 21.40625 -14.609375 39.703125q-14.59375 18.296875 -37.1875 35.703125l54.0 0l0 27.796875l-100.40625 0l0 -25.40625z" fill-rule="nonzero"/></g></svg>